<svg version="1.1" viewBox="0.0 0.0 890.0 726.0" fill="none" stroke="none" stroke-linecap="square" stroke-miterlimit="10" xmlns:xlink="http://www.w3.org/1999/xlink" xmlns="http://www.w3.org/2000/svg"><clipPath id="p.0"><path d="m0 0l890.0 0l0 726.0l-890.0 0l0 -726.0z" clip-rule="nonzero"/></clipPath><g clip-path="url(#p.0)"><path fill="#000000" fill-opacity="0.0" d="m0 0l890.0 0l0 726.0l-890.0 0z" fill-rule="evenodd"/><path fill="#000000" d="m32.0 178.0l518.0 0l0 486.0l-518.0 0z" fill-rule="evenodd"/><path fill="#000000" d="m550.0 178.0l162.0 -162.0l0 486.0l-162.0 162.0z" fill-rule="evenodd"/><path fill="#333333" d="m32.0 178.0l162.0 -162.0l518.0 0l-162.0 162.0z" fill-rule="evenodd"/><path fill="#000000" fill-opacity="0.0" d="m32.0 178.0l162.0 -162.0l518.0 0l0 486.0l-162.0 162.0l-518.0 0zm0 0l518.0 0l162.0 -162.0m-162.0 162.0l0 486.0" fill-rule="evenodd"/><path stroke="#000000" stroke-width="1.0" stroke-linejoin="round" stroke-linecap="butt" d="m32.0 178.0l162.0 -162.0l518.0 0l0 486.0l-162.0 162.0l-518.0 0zm0 0l518.0 0l162.0 -162.0m-162.0 162.0l0 486.0" fill-rule="evenodd"/><path fill="#000000" fill-opacity="0.0" d="m561.2913 144.0l550.7087 550.7087l-342.80316 342.80316l-550.7086 -550.7087z" fill-rule="evenodd"/><path fill="#434343" d="m317.72665 434.4989l219.94333 -219.94336l20.914917 20.914902l-83.63748 208.5302l146.08383 -146.08383l25.522156 25.522125l-219.94336 219.94339l-19.54486 -19.544922l86.89679 -213.42468l-150.16077 150.16074l-26.074554 -26.074554zm143.36734 143.36731l219.94336 -219.94333l30.681763 30.681793l-197.94568 197.94568l56.214966 56.215027l-21.99762 21.99762l-86.89679 -86.89679zm107.79706 107.79706l219.94336 -219.94333l54.579773 54.579803q19.821106 19.821045 24.428345 38.835632q4.618286 19.003479 -3.5355225 38.006958q-8.142822 19.014587 -27.411438 38.283203q-17.379395 17.379395 -36.250305 24.030579q-18.87091 6.651245 -37.74182 1.6351929q-18.87091 -5.0160522 -36.791626 -22.936768l-24.174194 -24.174194l-102.36481 102.364746l-30.681763 -30.681824zm155.04419 -93.6806l14.120056 14.120056q13.313477 13.313477 23.89801 17.931763q10.584473 4.618286 21.312622 0.40881348q10.728149 -4.2094727 24.306763 -17.788147q15.744202 -15.744202 21.854065 -26.47229q6.1098022 -10.728149 2.032898 -21.32373q-4.065857 -10.584473 -19.54486 -26.063477l-14.39624 -14.396301l-73.58331 73.58331z" fill-rule="nonzero"/><g filter="url(#shadowFilter-p.1)"><use xlink:href="#p.1" transform=""/></g><defs><filter id="shadowFilter-p.1" filterUnits="userSpaceOnUse"><feGaussianBlur in="SourceAlpha" stdDeviation="2.0" result="blur"/><feComponentTransfer in="blur" color-interpolation-filters="sRGB"><feFuncR type="linear" slope="0" intercept="0.0"/><feFuncG type="linear" slope="0" intercept="0.0"/><feFuncB type="linear" slope="0" intercept="0.0"/><feFuncA type="linear" slope="0.5" intercept="0"/></feComponentTransfer></filter></defs><g id="p.1"><path fill="#000000" fill-opacity="0.0" d="m558.77167 134.29921l490.86615 490.86615l-342.77167 342.83466l-490.86615 -490.86615z" fill-rule="evenodd"/><path fill="#ffffff" d="m315.2315 424.82263l219.92316 -219.96355l20.914856 20.914886l-83.62402 208.54362l146.07043 -146.09726l25.522095 25.522156l-219.92313 219.96356l-19.54486 -19.54486l86.882996 -213.43854l-150.14697 150.17456l-26.074554 -26.074585zm143.36734 143.36737l219.92313 -219.9636l30.681824 30.681793l-197.92755 197.96393l56.215027 56.214966l-21.995667 21.999695l-86.89676 -86.89679zm107.79703 107.797l219.92316 -219.96353l54.579773 54.579803q19.821106 19.821106 24.429016 38.836304q4.6189575 19.00415 -3.5336304 38.00891q-8.141541 19.015747 -27.408386 38.286194q-17.377808 17.380981 -36.247498 24.033325q-18.869751 6.652405 -37.74005 1.6370239q-18.87024 -5.015381 -36.791016 -22.936157l-24.174194 -24.174194l-102.35535 102.374146l-30.681824 -30.681824zm155.03278 -93.69202l14.120056 14.120056q13.313477 13.313477 23.897705 17.931519q10.5842285 4.617981 21.311707 0.4078369q10.727417 -4.210205 24.30487 -17.7901q15.742737 -15.745605 21.851807 -26.474548q6.10907 -10.728882 2.0318604 -21.324768q-4.066162 -10.584778 -19.545227 -26.063782l-14.39624 -14.39624l-73.57654 73.59003z" fill-rule="nonzero"/></g><path fill="#000000" fill-opacity="0.0" d="m48.0 192.0l336.0 0l0 252.09448l-336.0 0z" fill-rule="evenodd"/><path fill="#434343" d="m63.046875 293.16l0 -77.765625l17.859375 0q5.28125 0 9.15625 1.15625q3.890625 1.15625 6.484375 3.5625q2.59375 2.390625 3.84375 6.09375q1.25 3.6875 1.25 8.687485q0 4.796875 -1.203125 8.296875q-1.203125 3.5 -3.65625 5.515625q-2.4375 2.015625 -6.28125 2.59375q4.703125 1.0625 7.578125 3.609375q2.890625 2.5312653 4.28125 6.5156403q1.390625 3.984375 1.390625 9.5625q0 4.984375 -1.15625 9.125q-1.140625 4.125 -3.59375 7.0q-2.453125 2.875 -6.25 4.46875q-3.78125 1.578125 -8.96875 1.578125l-20.734375 0zm10.84375 -7.78125l7.296875 0q7.296875 0 9.75 -3.40625q2.453125 -3.40625 2.453125 -10.984375q0 -4.90625 -1.296875 -8.21875q-1.296875 -3.3125 -4.140625 -4.984375q-2.828125 -1.6875 -7.625 -1.6875l-6.4375 0l0 29.28125zm0 -37.531265l6.4375 0q4.609375 0 7.203125 -1.296875q2.59375 -1.296875 3.640625 -4.171875q1.0625 -2.875 1.0625 -7.484375q0 -5.3749847 -1.640625 -7.7812347q-1.625 -2.40625 -5.078125 -3.03125q-3.453125 -0.625 -9.03125 -0.625l-2.59375 0l0 24.39061zm39.55397 45.312515l0 -77.765625l10.28125 0l0 77.765625l-10.28125 0zm31.015244 0.765625q-3.265625 0 -5.765625 -1.859375q-2.5 -1.875 -3.9375 -4.796875q-1.4375 -2.9375 -1.4375 -6.203125q0 -5.1875 1.71875 -8.734375q1.734375 -3.5625 4.75 -6.0q3.03125 -2.453125 7.015625 -4.265625q3.984375 -1.828125 8.40625 -3.5625l0 -3.9375153q0 -3.359375 -0.390625 -5.5625q-0.375 -2.21875 -1.578125 -3.3125q-1.203125 -1.109375 -3.59375 -1.109375q-2.125 0 -3.421875 0.96875q-1.296875 0.953125 -1.875 2.734375q-0.5625 1.765625 -0.5625 4.171875l0 2.78125l-10.1875 -0.375q0.203125 -9.21875 4.234375 -13.578125q4.03125 -4.375 12.484375 -4.375q8.25 0 11.703125 4.515625q3.453125 4.5 3.453125 13.046875l0 25.343765q0 2.59375 0.140625 5.0q0.15625 2.390625 0.390625 4.453125q0.234375 2.0625 0.4375 3.890625l-9.40625 0q-0.296875 -1.53125 -0.734375 -3.875q-0.421875 -2.359375 -0.609375 -4.28125q-0.96875 3.265625 -3.703125 6.09375q-2.734375 2.828125 -7.53125 2.828125zm4.03125 -8.828125q1.53125 0 2.875 -0.859375q1.34375 -0.875 2.390625 -1.96875q1.0625 -1.109375 1.453125 -1.78125l0 -15.75q-2.40625 1.34375 -4.515625 2.6875q-2.109375 1.34375 -3.703125 2.84375q-1.578125 1.484375 -2.5 3.359375q-0.90625 1.875 -0.90625 4.265625q0 3.359375 1.25 5.28125q1.25 1.921875 3.65625 1.921875zm42.05223 8.828125q-6.828125 0 -10.328125 -2.734375q-3.5 -2.734375 -4.703125 -7.71875q-1.203125 -5.0 -1.203125 -11.625l0 -12.765625q0 -7.0156403 1.25 -11.95314q1.25 -4.9375 4.75 -7.578125q3.5 -2.640625 10.234375 -2.640625q6.046875 0 9.359375 1.96875q3.3125 1.96875 4.546875 5.859375q1.25 3.875 1.25 9.640625l0 3.2656403l-9.3125 0l0 -3.3593903q0 -3.65625 -0.484375 -5.765625q-0.46875 -2.109375 -1.71875 -3.0625q-1.25 -0.96875 -3.546875 -0.96875q-2.5 0 -3.84375 1.15625q-1.34375 1.140625 -1.78125 3.890625q-0.421875 2.734375 -0.421875 7.4375153l0 17.46875q0 7.109375 1.34375 9.515625q1.34375 2.390625 4.796875 2.390625q2.59375 0 3.78125 -1.203125q1.203125 -1.203125 1.53125 -3.40625q0.34375 -2.203125 0.34375 -5.0l0 -4.5l9.3125 0l0 3.828125q0 5.578125 -1.296875 9.609375q-1.296875 4.03125 -4.609375 6.140625q-3.3125 2.109375 -9.25 2.109375zm24.471603 -0.859375l0 -77.765625l10.265625 0l0 46.375l14.984375 -24.000015l10.75 0l-13.0625 21.687515l12.671875 33.796875l-10.265625 0l-10.359375 -28.421875l-4.71875 7.109375l0 21.21875l-10.265625 0z" fill-rule="nonzero"/><path fill="#434343" d="m63.046875 408.36l0 -77.765625l17.859375 0q5.28125 0 9.15625 1.15625q3.890625 1.15625 6.484375 3.5625q2.59375 2.390625 3.84375 6.09375q1.25 3.6875 1.25 8.6875q0 4.796875 -1.203125 8.296875q-1.203125 3.5 -3.65625 5.515625q-2.4375 2.015625 -6.28125 2.59375q4.703125 1.0625 7.578125 3.609375q2.890625 2.53125 4.28125 6.515625q1.390625 3.984375 1.390625 9.5625q0 4.984375 -1.15625 9.125q-1.140625 4.125 -3.59375 7.0q-2.453125 2.875 -6.25 4.46875q-3.78125 1.578125 -8.96875 1.578125l-20.734375 0zm10.84375 -7.78125l7.296875 0q7.296875 0 9.75 -3.40625q2.453125 -3.40625 2.453125 -10.984375q0 -4.90625 -1.296875 -8.21875q-1.296875 -3.3125 -4.140625 -4.984375q-2.828125 -1.6875 -7.625 -1.6875l-6.4375 0l0 29.28125zm0 -37.53125l6.4375 0q4.609375 0 7.203125 -1.296875q2.59375 -1.296875 3.640625 -4.171875q1.0625 -2.875 1.0625 -7.484375q0 -5.375 -1.640625 -7.78125q-1.625 -2.40625 -5.078125 -3.03125q-3.453125 -0.625 -9.03125 -0.625l-2.59375 0l0 24.390625zm53.86647 46.078125q-6.15625 0 -9.703125 -2.484375q-3.546875 -2.5 -5.046875 -7.109375q-1.484375 -4.609375 -1.484375 -10.859375l0 -16.125q0 -6.234375 1.484375 -10.84375q1.5 -4.609375 5.046875 -7.09375q3.546875 -2.5 9.703125 -2.5q6.140625 0 9.640625 2.5q3.5 2.484375 4.984375 7.09375q1.5 4.609375 1.5 10.84375l0 16.125q0 6.25 -1.5 10.859375q-1.484375 4.609375 -4.984375 7.109375q-3.5 2.484375 -9.640625 2.484375zm0 -7.578125q2.96875 0 4.171875 -1.71875q1.203125 -1.734375 1.4375 -4.5625q0.234375 -2.84375 0.234375 -5.921875l0 -17.375q0 -3.15625 -0.234375 -5.9375q-0.234375 -2.796875 -1.4375 -4.5625q-1.203125 -1.78125 -4.171875 -1.78125q-2.984375 0 -4.234375 1.78125q-1.25 1.765625 -1.484375 4.5625q-0.234375 2.78125 -0.234375 5.9375l0 17.375q0 3.078125 0.234375 5.921875q0.234375 2.828125 1.484375 4.5625q1.25 1.71875 4.234375 1.71875zm20.822235 6.8125l12.484375 -29.1875l-12.1875 -26.296875l9.78125 0l8.171875 17.5625l7.1875 -17.5625l10.09375 0l-12.671875 27.546875l12.859375 27.9375l-9.796875 0l-8.734375 -18.8125l-7.484375 18.8125l-9.703125 0z" fill-rule="nonzero"/></g></svg>